<svg xmlns="http://www.w3.org/2000/svg" width="1200" height="210" viewBox="0 0 1200 210" role="img" aria-labelledby="t d"><title id="t">HAPF — patient-adaptive research</title><desc id="d">Shared knowledge, personal predictions. The chart is an illustrative design, not patient data.</desc><defs><linearGradient id="g"><stop stop-color="#102027"/><stop offset="1" stop-color="#0d161b"/></linearGradient><linearGradient id="f" x1="0" x2="0" y1="0" y2="1"><stop stop-color="#95d9de" stop-opacity=".25"/><stop offset="1" stop-color="#95d9de" stop-opacity="0"/></linearGradient><style>.p{stroke-dasharray:700;animation:d 8s ease-in-out infinite}@keyframes d{0%{stroke-dashoffset:700}60%,100%{stroke-dashoffset:0}}@media(prefers-reduced-motion:reduce){.p{animation:none}}</style></defs><rect x=".5" y=".5" width="1199" height="209" rx="8" fill="url(#g)" stroke="#293f49"/><text x="36" y="39" fill="#9faeb8" font-family="Consolas,monospace" font-size="10" letter-spacing="2">03 / PATIENT-ADAPTIVE RESEARCH</text><text x="33" y="105" fill="#e9e8e2" font-family="Arial,Helvetica,sans-serif" font-size="54" font-weight="500" letter-spacing="-2">HAPF</text><text x="37" y="144" fill="#95d9de" font-family="Georgia,serif" font-size="23" font-style="italic">Shared knowledge. Personal predictions.</text><text x="37" y="183" fill="#8b9aa5" font-family="Consolas,monospace" font-size="9" letter-spacing="1.5">POPULATION MODEL · PERSONAL ADAPTATION · CALIBRATED FALLBACK</text><g transform="translate(727 28)"><path d="M0 20h435M0 60h435M0 100h435M0 140h435M65 0v150M145 0v150M225 0v150M305 0v150M385 0v150" fill="none" stroke="#29434b" stroke-width=".7"/><path d="M218 88 265 35 310 39 355 23 425 44v95l-70-15-45 15-45-29-47 1z" fill="url(#f)"/><path d="M0 105Q30 53 65 83T135 74T205 99T275 81T345 91T425 82" fill="none" stroke="#697f89" stroke-width="1.5" stroke-dasharray="5 6"/><path class="p" d="M0 105Q30 53 65 83T135 74T205 99T275 69T345 81T425 73" fill="none" stroke="#95d9de" stroke-width="2"/><path d="M219 0v150" stroke="#ebbc84" stroke-opacity=".65" stroke-dasharray="3 5"/><circle cx="219" cy="88" r="4" fill="#ebbc84"/></g><text x="944" y="192" text-anchor="middle" fill="#879aa3" font-family="Consolas,monospace" font-size="7" letter-spacing="1.5">ILLUSTRATIVE TRACE · RESEARCH, NOT CLINICAL DEPLOYMENT</text></svg>