<svg xmlns="http://www.w3.org/2000/svg" width="1200" height="210" viewBox="0 0 1200 210" role="img" aria-labelledby="t d"><title id="t">Synapse</title><desc id="d">Different languages, one data contract. Rust shared memory, Python and C++ interfaces.</desc><defs><linearGradient id="g"><stop stop-color="#1b1c1c"/><stop offset="1" stop-color="#101820"/></linearGradient><linearGradient id="b" x1="0" y1="0" x2="1" y2="1"><stop stop-color="#b1966a"/><stop offset="1" stop-color="#3b6169"/></linearGradient><style>.b{animation:p 4s ease-in-out infinite}.b:nth-child(2n){animation-delay:.4s}.b:nth-child(3n){animation-delay:.8s}@keyframes p{50%{opacity:.4}}@media(prefers-reduced-motion:reduce){.b{animation:none}}</style></defs><rect x=".5" y=".5" width="1199" height="209" rx="8" fill="url(#g)" stroke="#3b3e3e"/><text x="36" y="39" fill="#9faeb8" font-family="Consolas,monospace" font-size="10" letter-spacing="2">02 / CROSS-LANGUAGE INFRASTRUCTURE</text><text x="33" y="105" fill="#e9e8e2" font-family="Arial,Helvetica,sans-serif" font-size="54" font-weight="500" letter-spacing="-2">Synapse</text><text x="37" y="144" fill="#ebbc84" font-family="Georgia,serif" font-size="23" font-style="italic">Different languages. One data contract.</text><text x="37" y="183" fill="#8b9aa5" font-family="Consolas,monospace" font-size="9" letter-spacing="1.5">RUST · SHARED MEMORY · PYTHON / C++ · .BRIDGE IDL</text><path d="M737 78h405M737 147h405" stroke="#618693" stroke-opacity=".5"/><g font-family="Consolas,monospace" font-size="11" fill="#bacbd2" letter-spacing="1"><text x="744" y="54">PYTHON</text><text x="1139" y="54" text-anchor="end">RUST / C++</text></g><g fill="url(#b)" stroke="#acb5a2" stroke-opacity=".4"><path class="b" d="M758 96l24-6v38l-24 6z"/><path class="b" d="M792 96l24-6v38l-24 6z"/><path class="b" d="M826 96l24-6v38l-24 6z"/><path class="b" d="M860 96l24-6v38l-24 6z"/><path class="b" d="M894 96l24-6v38l-24 6z"/><path class="b" d="M928 96l24-6v38l-24 6z"/><path class="b" d="M962 96l24-6v38l-24 6z"/><path class="b" d="M996 96l24-6v38l-24 6z"/><path class="b" d="M1030 96l24-6v38l-24 6z"/><path class="b" d="M1064 96l24-6v38l-24 6z"/><path class="b" d="M1098 96l24-6v38l-24 6z"/></g><text x="940" y="183" text-anchor="middle" fill="#b5a085" font-family="Consolas,monospace" font-size="9" letter-spacing="2">EXPLICIT TYPES. SHARED STATE.</text></svg>